<?xml version="1.0" encoding="UTF-8"?>
<svg id="Layer_1" data-name="Layer 1" xmlns="http://www.w3.org/2000/svg" viewBox="0 0 560 560">
  <defs>
    <style>
      .cls-1 {
        fill: #0a0a0a;
      }

      .cls-2 {
        fill: #30a1b4;
      }
    </style>
  </defs>
  <path class="cls-1" d="M123.33,243.37v71.99c0,4.49-3.23,8.13-7.22,8.13h-1.33c-2.17,0-4.23-1.1-5.6-3l-37.9-52.44c-1.05-1.45-3.12-.61-3.12,1.25v46.06c0,4.49-3.23,8.13-7.22,8.13h0c-3.99,0-7.22-3.64-7.22-8.13v-71.99c0-4.49,3.23-8.13,7.22-8.13h1.33c2.17,0,4.23,1.1,5.6,3l37.9,52.44c1.05,1.45,3.12,.61,3.12-1.25v-46.06c0-4.49,3.23-8.13,7.22-8.13h0c3.99,0,7.22,3.64,7.22,8.13Z"/>
  <path class="cls-1" d="M225.46,299.54c0,15.13-10.91,23.96-31.79,23.96h-31.56c-4.87,0-8.82-4.29-8.82-9.58v-69.1c0-5.29,3.95-9.58,8.82-9.58h29.24c19.49,0,29.94,8.95,29.94,22.95,0,7.63-2.95,13.57-7.61,17.44-1.06,.88-.9,2.7,.3,3.32,6.96,3.61,11.49,10.56,11.49,20.59Zm-57.09-49.46v20.37c0,1.1,.82,1.98,1.83,1.98h19.53c10.44,0,16.36-4.04,16.36-12.1s-5.92-12.23-16.36-12.23h-19.53c-1.01,0-1.83,.89-1.83,1.98Zm41.89,47.82c0-8.83-6.15-12.73-17.52-12.73h-22.54c-1.01,0-1.83,.89-1.83,1.98v21.5c0,1.1,.82,1.98,1.83,1.98h22.54c11.37,0,17.52-3.91,17.52-12.73Z"/>
  <path class="cls-1" d="M248.1,285.04v-41.73c0-4.46,3.34-8.07,7.46-8.07h.23c4.12,0,7.46,3.61,7.46,8.07v41.1c0,18.16,7.57,25.97,20.74,25.97s20.62-7.82,20.62-25.97v-41.1c0-4.46,3.34-8.07,7.46-8.07h0c4.12,0,7.46,3.61,7.46,8.07v41.73c0,25.72-13.4,39.72-35.65,39.72s-35.77-14-35.77-39.72Z"/>
  <path class="cls-1" d="M350.66,235.24h0c4.53,0,8.2,3.67,8.2,8.2v71.87c0,4.53-3.67,8.2-8.2,8.2h0c-4.53,0-8.2-3.67-8.2-8.2v-71.87c0-4.53,3.67-8.2,8.2-8.2Z"/>
  <path class="cls-1" d="M402.6,235.24h2.52c3.83,0,6.93,3.1,6.93,6.93v65.47c0,1.1,.89,1.98,1.98,1.98h37.23c3.83,0,6.93,3.1,6.93,6.93h0c0,3.83-3.1,6.93-6.93,6.93h-48.67c-3.83,0-6.93-3.1-6.93-6.93v-74.39c0-3.83,3.1-6.93,6.93-6.93Z"/>
  <path class="cls-1" d="M480.63,245.45c0-5.29,3.58-9.58,8-9.58h24.21c23.89,0,40.21,17.65,40.21,44.13s-16.31,44.13-40.21,44.13h-24.21c-4.42,0-8-4.29-8-9.58v-69.1Zm31.58,64.81c16.42,0,27.05-11.98,27.05-30.26s-10.63-30.26-27.05-30.26h-16.24c-.91,0-1.66,.89-1.66,1.98v56.55c0,1.1,.74,1.98,1.66,1.98h16.24Z"/>
  <g>
    <path class="cls-2" d="M7.09,242.57c0-4.1,3.32-7.33,7.82-7.33s7.82,3.03,7.82,7.03c0,4.3-3.22,7.62-7.82,7.62s-7.82-3.22-7.82-7.33Zm5.89,15.93h3.76c2.34,0,4.23,1.89,4.23,4.23v43.72c0,2.34-1.89,4.23-4.23,4.23h-3.76c-2.34,0-4.23-1.89-4.23-4.23v-43.72c0-2.34,1.89-4.23,4.23-4.23Z"/>
    <rect class="cls-1" x="6.96" y="253.2" width="15.76" height="70.3" rx="7.54" ry="7.54"/>
  </g>
</svg>